<?xml version="1.0" encoding="UTF-8"?><svg xmlns="http://www.w3.org/2000/svg" xmlns:xlink="http://www.w3.org/1999/xlink" width="1805.25" zoomAndPan="magnify" viewBox="0 0 1805.25 618.749987" height="618.749987" preserveAspectRatio="xMidYMid meet" version="1.0"><defs><clipPath id="clip-0"><path d="M 597 16.878906 L 1208 16.878906 L 1208 601.636719 L 597 601.636719 Z M 597 16.878906 " clip-rule="nonzero"/></clipPath></defs><g clip-path="url(#clip-0)"><path fill="rgb(0%, 0%, 0%)" d="M 1203.730469 263.117188 L 910.722656 87.417969 L 910.722656 85.984375 L 960.667969 85.984375 C 960.933594 86.835938 961.328125 87.628906 961.84375 88.355469 C 962.359375 89.082031 962.976562 89.714844 963.691406 90.246094 C 964.40625 90.777344 965.1875 91.1875 966.035156 91.472656 C 966.878906 91.757812 967.75 91.90625 968.640625 91.914062 L 1023.15625 91.914062 C 1023.507812 91.910156 1023.855469 91.882812 1024.207031 91.835938 C 1024.554688 91.789062 1024.898438 91.71875 1025.238281 91.628906 C 1025.582031 91.539062 1025.914062 91.429688 1026.242188 91.296875 C 1026.566406 91.167969 1026.882812 91.015625 1027.191406 90.84375 C 1027.5 90.675781 1027.796875 90.488281 1028.082031 90.28125 C 1028.367188 90.074219 1028.640625 89.851562 1028.898438 89.609375 C 1029.152344 89.371094 1029.394531 89.113281 1029.621094 88.84375 C 1029.847656 88.574219 1030.058594 88.292969 1030.25 87.996094 C 1030.441406 87.703125 1030.613281 87.394531 1030.765625 87.078125 C 1030.921875 86.761719 1031.054688 86.4375 1031.167969 86.101562 C 1031.28125 85.769531 1031.375 85.429688 1031.445312 85.085938 C 1031.519531 84.742188 1031.570312 84.394531 1031.597656 84.042969 C 1031.628906 83.691406 1031.636719 83.339844 1031.621094 82.988281 C 1031.609375 82.636719 1031.570312 82.289062 1031.515625 81.941406 C 1031.457031 81.59375 1031.378906 81.25 1031.28125 80.910156 C 1031.183594 80.574219 1031.0625 80.242188 1030.921875 79.921875 L 1021.453125 57.292969 L 1031.46875 34.667969 C 1031.75 34.015625 1031.949219 33.339844 1032.066406 32.636719 C 1032.179688 31.9375 1032.207031 31.234375 1032.148438 30.523438 C 1032.089844 29.816406 1031.945312 29.128906 1031.714844 28.457031 C 1031.484375 27.785156 1031.175781 27.152344 1030.785156 26.554688 C 1030.414062 25.988281 1029.980469 25.46875 1029.480469 25.007812 C 1028.984375 24.542969 1028.441406 24.144531 1027.847656 23.8125 C 1027.253906 23.480469 1026.628906 23.222656 1025.972656 23.042969 C 1025.320312 22.859375 1024.652344 22.757812 1023.972656 22.738281 L 976.953125 22.738281 C 976.675781 21.890625 976.273438 21.105469 975.75 20.382812 C 975.222656 19.660156 974.601562 19.039062 973.878906 18.511719 C 973.15625 17.988281 972.371094 17.582031 971.523438 17.304688 C 970.675781 17.027344 969.808594 16.882812 968.914062 16.878906 L 902.476562 16.878906 C 901.917969 16.878906 901.363281 16.933594 900.8125 17.042969 C 900.265625 17.152344 899.734375 17.3125 899.214844 17.527344 C 898.699219 17.742188 898.207031 18.003906 897.742188 18.3125 C 897.277344 18.625 896.847656 18.976562 896.453125 19.375 C 896.058594 19.769531 895.703125 20.199219 895.394531 20.664062 C 895.082031 21.128906 894.820312 21.621094 894.605469 22.136719 C 894.394531 22.652344 894.230469 23.1875 894.121094 23.734375 C 894.011719 24.285156 893.957031 24.835938 893.957031 25.398438 L 893.957031 87.484375 L 600.949219 263.183594 C 600.160156 263.691406 599.472656 264.308594 598.890625 265.039062 C 598.304688 265.769531 597.847656 266.574219 597.527344 267.453125 C 597.203125 268.332031 597.03125 269.242188 597.003906 270.175781 C 596.980469 271.113281 597.101562 272.027344 597.378906 272.925781 C 597.652344 273.820312 598.0625 274.648438 598.605469 275.410156 C 599.152344 276.171875 599.800781 276.824219 600.5625 277.375 C 601.320312 277.921875 602.148438 278.335938 603.042969 278.613281 C 603.9375 278.890625 604.851562 279.019531 605.789062 278.996094 L 611.238281 278.996094 L 611.238281 316.753906 C 611.238281 317.3125 611.292969 317.867188 611.402344 318.414062 C 611.511719 318.964844 611.671875 319.496094 611.886719 320.011719 C 612.101562 320.53125 612.363281 321.019531 612.675781 321.488281 C 612.984375 321.953125 613.335938 322.382812 613.734375 322.777344 C 614.128906 323.171875 614.558594 323.527344 615.023438 323.835938 C 615.488281 324.148438 615.980469 324.410156 616.496094 324.625 C 617.011719 324.839844 617.546875 325 618.09375 325.109375 C 618.644531 325.21875 619.195312 325.273438 619.757812 325.273438 L 644.21875 325.273438 L 644.21875 355.125 C 644.21875 355.609375 644.257812 356.089844 644.34375 356.566406 C 644.425781 357.042969 644.546875 357.511719 644.710938 357.96875 C 644.875 358.421875 645.078125 358.863281 645.316406 359.285156 C 645.558594 359.703125 645.832031 360.101562 646.140625 360.476562 C 646.449219 360.847656 646.789062 361.195312 647.15625 361.507812 C 647.523438 361.824219 647.917969 362.105469 648.332031 362.351562 C 648.75 362.597656 649.1875 362.804688 649.640625 362.976562 C 650.09375 363.148438 650.558594 363.28125 651.035156 363.371094 L 643.945312 484.34375 L 641.765625 484.34375 C 641.199219 484.328125 640.632812 484.371094 640.074219 484.472656 C 639.515625 484.570312 638.972656 484.722656 638.445312 484.933594 C 637.914062 485.140625 637.414062 485.398438 636.933594 485.707031 C 636.457031 486.015625 636.015625 486.367188 635.609375 486.765625 C 635.203125 487.160156 634.839844 487.59375 634.519531 488.0625 C 634.203125 488.535156 633.929688 489.03125 633.710938 489.554688 C 633.492188 490.078125 633.324219 490.617188 633.210938 491.175781 C 633.101562 491.730469 633.042969 492.292969 633.042969 492.863281 L 633.042969 519.714844 L 619.414062 519.714844 C 618.878906 519.734375 618.351562 519.808594 617.828125 519.929688 C 617.304688 520.050781 616.796875 520.21875 616.304688 520.4375 C 615.816406 520.652344 615.347656 520.914062 614.90625 521.222656 C 614.464844 521.527344 614.058594 521.871094 613.679688 522.253906 C 613.304688 522.636719 612.96875 523.050781 612.667969 523.496094 C 612.371094 523.941406 612.117188 524.414062 611.910156 524.90625 C 611.699219 525.402344 611.539062 525.914062 611.425781 526.4375 C 611.3125 526.960938 611.25 527.492188 611.238281 528.027344 L 611.238281 592.980469 C 611.238281 593.539062 611.292969 594.09375 611.402344 594.640625 C 611.511719 595.191406 611.671875 595.722656 611.886719 596.238281 C 612.101562 596.757812 612.363281 597.246094 612.675781 597.710938 C 612.984375 598.175781 613.335938 598.609375 613.734375 599.003906 C 614.128906 599.398438 614.558594 599.753906 615.023438 600.0625 C 615.488281 600.375 615.980469 600.636719 616.496094 600.851562 C 617.011719 601.0625 617.546875 601.226562 618.09375 601.335938 C 618.644531 601.445312 619.195312 601.5 619.757812 601.5 L 1184.992188 601.5 C 1185.550781 601.503906 1186.105469 601.453125 1186.65625 601.347656 C 1187.207031 601.242188 1187.742188 601.082031 1188.261719 600.867188 C 1188.78125 600.65625 1189.273438 600.394531 1189.738281 600.085938 C 1190.207031 599.773438 1190.636719 599.421875 1191.035156 599.023438 C 1191.429688 598.628906 1191.785156 598.195312 1192.09375 597.730469 C 1192.40625 597.261719 1192.667969 596.769531 1192.878906 596.25 C 1193.089844 595.730469 1193.25 595.195312 1193.355469 594.644531 C 1193.460938 594.097656 1193.511719 593.539062 1193.507812 592.980469 L 1193.507812 528.027344 C 1193.5 527.476562 1193.4375 526.929688 1193.320312 526.390625 C 1193.207031 525.851562 1193.039062 525.328125 1192.820312 524.820312 C 1192.601562 524.3125 1192.335938 523.832031 1192.023438 523.378906 C 1191.710938 522.921875 1191.355469 522.503906 1190.960938 522.117188 C 1190.566406 521.730469 1190.136719 521.386719 1189.675781 521.085938 C 1189.214844 520.785156 1188.726562 520.53125 1188.214844 520.324219 C 1187.703125 520.117188 1187.175781 519.964844 1186.632812 519.863281 C 1186.089844 519.757812 1185.542969 519.710938 1184.992188 519.714844 L 1171.363281 519.714844 L 1171.363281 492.863281 C 1171.363281 492.300781 1171.308594 491.75 1171.199219 491.199219 C 1171.089844 490.652344 1170.929688 490.117188 1170.714844 489.601562 C 1170.5 489.085938 1170.238281 488.59375 1169.925781 488.128906 C 1169.617188 487.664062 1169.261719 487.234375 1168.867188 486.839844 C 1168.472656 486.441406 1168.042969 486.089844 1167.578125 485.777344 C 1167.113281 485.46875 1166.621094 485.207031 1166.105469 484.992188 C 1165.589844 484.777344 1165.054688 484.617188 1164.507812 484.507812 C 1163.957031 484.398438 1163.40625 484.34375 1162.84375 484.34375 L 1160.597656 484.34375 L 1153.714844 363.097656 C 1154.1875 363.003906 1154.652344 362.871094 1155.105469 362.699219 C 1155.554688 362.523438 1155.988281 362.3125 1156.40625 362.066406 C 1156.820312 361.816406 1157.210938 361.535156 1157.578125 361.222656 C 1157.945312 360.90625 1158.285156 360.5625 1158.59375 360.191406 C 1158.898438 359.816406 1159.175781 359.421875 1159.414062 359 C 1159.65625 358.582031 1159.855469 358.144531 1160.023438 357.6875 C 1160.1875 357.234375 1160.3125 356.769531 1160.398438 356.292969 C 1160.480469 355.816406 1160.527344 355.335938 1160.527344 354.851562 L 1160.527344 325 L 1184.992188 325 C 1185.550781 325.019531 1186.101562 324.980469 1186.652344 324.890625 C 1187.203125 324.796875 1187.738281 324.652344 1188.261719 324.457031 C 1188.78125 324.257812 1189.28125 324.011719 1189.753906 323.714844 C 1190.226562 323.417969 1190.664062 323.078125 1191.070312 322.695312 C 1191.476562 322.3125 1191.839844 321.890625 1192.164062 321.4375 C 1192.484375 320.980469 1192.757812 320.5 1192.984375 319.988281 C 1193.214844 319.480469 1193.386719 318.953125 1193.511719 318.40625 C 1193.632812 317.863281 1193.699219 317.3125 1193.714844 316.753906 L 1193.714844 279.269531 L 1199.367188 279.269531 C 1200.292969 279.25 1201.195312 279.085938 1202.066406 278.777344 C 1202.9375 278.46875 1203.742188 278.027344 1204.472656 277.460938 C 1205.203125 276.890625 1205.824219 276.222656 1206.339844 275.453125 C 1206.851562 274.683594 1207.234375 273.851562 1207.476562 272.957031 C 1207.722656 272.066406 1207.820312 271.15625 1207.773438 270.230469 C 1207.722656 269.304688 1207.53125 268.414062 1207.191406 267.550781 C 1206.855469 266.6875 1206.390625 265.902344 1205.796875 265.191406 C 1205.207031 264.476562 1204.515625 263.878906 1203.730469 263.390625 Z M 1004.210938 60.769531 L 1010.414062 74.875 L 977.433594 74.875 L 977.433594 39.777344 L 1010.414062 39.777344 L 1004.210938 53.816406 C 1003.699219 54.917969 1003.441406 56.078125 1003.441406 57.292969 C 1003.441406 58.507812 1003.699219 59.667969 1004.210938 60.769531 Z M 911.265625 33.847656 L 960.125 33.847656 L 960.125 68.945312 L 911.265625 68.945312 Z M 750.792969 228.152344 L 898.386719 139.554688 C 899.050781 139.15625 899.753906 138.851562 900.5 138.644531 C 901.246094 138.4375 902.007812 138.332031 902.78125 138.332031 C 903.558594 138.332031 904.316406 138.4375 905.0625 138.644531 C 905.808594 138.851562 906.515625 139.15625 907.175781 139.554688 L 1054.773438 228.152344 C 1055.566406 228.632812 1056.265625 229.226562 1056.867188 229.9375 C 1057.464844 230.644531 1057.9375 231.429688 1058.28125 232.292969 C 1058.625 233.15625 1058.824219 234.050781 1058.875 234.976562 C 1058.925781 235.90625 1058.828125 236.816406 1058.582031 237.710938 C 1058.332031 238.605469 1057.949219 239.441406 1057.429688 240.210938 C 1056.910156 240.980469 1056.285156 241.648438 1055.546875 242.210938 C 1054.808594 242.777344 1054 243.207031 1053.121094 243.507812 C 1052.242188 243.808594 1051.339844 243.960938 1050.410156 243.964844 C 1048.824219 243.953125 1047.347656 243.542969 1045.980469 242.738281 L 902.886719 156.796875 L 759.789062 242.738281 C 759.308594 243.035156 758.804688 243.28125 758.277344 243.476562 C 757.75 243.671875 757.210938 243.816406 756.65625 243.90625 C 756.097656 243.996094 755.539062 244.027344 754.980469 244.007812 C 754.417969 243.988281 753.863281 243.914062 753.316406 243.785156 C 752.765625 243.652344 752.238281 243.472656 751.726562 243.238281 C 751.214844 243.003906 750.730469 242.722656 750.273438 242.394531 C 749.820312 242.0625 749.398438 241.691406 749.015625 241.28125 C 748.632812 240.867188 748.292969 240.421875 748 239.945312 C 747.703125 239.464844 747.457031 238.960938 747.261719 238.433594 C 747.066406 237.90625 746.921875 237.367188 746.832031 236.8125 C 746.742188 236.257812 746.707031 235.695312 746.730469 235.136719 C 746.75 234.574219 746.824219 234.019531 746.953125 233.46875 C 747.082031 232.921875 747.265625 232.394531 747.5 231.882812 C 747.734375 231.371094 748.015625 230.886719 748.34375 230.429688 C 748.675781 229.972656 749.042969 229.554688 749.457031 229.171875 C 749.867188 228.789062 750.3125 228.449219 750.792969 228.152344 Z M 719.582031 344.421875 L 661.253906 344.421875 L 661.253906 325 L 719.582031 325 Z M 650.285156 501.175781 C 650.832031 501.386719 651.402344 501.523438 651.988281 501.585938 L 728.917969 501.585938 C 729.5 501.507812 730.070312 501.371094 730.621094 501.175781 L 730.621094 518.761719 L 650.285156 518.761719 Z M 738.867188 484.003906 L 736.621094 484.003906 L 729.601562 363.097656 C 730.078125 363.007812 730.542969 362.875 730.996094 362.703125 C 731.449219 362.535156 731.882812 362.324219 732.300781 362.078125 C 732.71875 361.832031 733.109375 361.550781 733.476562 361.234375 C 733.847656 360.921875 734.183594 360.578125 734.492188 360.203125 C 734.800781 359.828125 735.078125 359.433594 735.316406 359.011719 C 735.554688 358.589844 735.757812 358.152344 735.921875 357.695312 C 736.085938 357.238281 736.207031 356.773438 736.292969 356.292969 C 736.375 355.816406 736.414062 355.335938 736.414062 354.851562 L 736.414062 325 L 785.410156 325 L 785.410156 354.851562 C 785.40625 355.335938 785.449219 355.816406 785.53125 356.292969 C 785.613281 356.773438 785.738281 357.238281 785.902344 357.695312 C 786.066406 358.152344 786.265625 358.589844 786.507812 359.011719 C 786.746094 359.433594 787.019531 359.828125 787.328125 360.203125 C 787.636719 360.578125 787.976562 360.921875 788.34375 361.234375 C 788.714844 361.550781 789.105469 361.832031 789.523438 362.078125 C 789.941406 362.324219 790.375 362.535156 790.828125 362.703125 C 791.28125 362.875 791.746094 363.007812 792.222656 363.097656 L 785.339844 484.34375 L 782.957031 484.34375 C 782.394531 484.34375 781.84375 484.398438 781.292969 484.507812 C 780.746094 484.617188 780.210938 484.777344 779.695312 484.992188 C 779.179688 485.207031 778.6875 485.46875 778.222656 485.777344 C 777.757812 486.089844 777.328125 486.441406 776.933594 486.839844 C 776.535156 487.234375 776.183594 487.664062 775.875 488.128906 C 775.5625 488.59375 775.300781 489.085938 775.085938 489.601562 C 774.871094 490.117188 774.710938 490.652344 774.601562 491.199219 C 774.492188 491.75 774.4375 492.300781 774.4375 492.863281 L 774.4375 519.714844 L 747.65625 519.714844 L 747.65625 492.863281 C 747.65625 492.300781 747.605469 491.75 747.496094 491.199219 C 747.386719 490.652344 747.222656 490.117188 747.007812 489.601562 C 746.796875 489.085938 746.535156 488.59375 746.222656 488.128906 C 745.910156 487.664062 745.558594 487.234375 745.164062 486.839844 C 744.769531 486.441406 744.335938 486.089844 743.871094 485.777344 C 743.40625 485.46875 742.917969 485.207031 742.398438 484.992188 C 741.882812 484.777344 741.351562 484.617188 740.800781 484.507812 C 740.253906 484.398438 739.699219 484.34375 739.140625 484.34375 Z M 934.433594 501.585938 L 1011.640625 501.585938 C 1012.207031 501.625 1012.773438 501.625 1013.34375 501.585938 L 1013.34375 519.101562 L 932.867188 519.101562 L 932.867188 501.515625 C 933.460938 501.738281 934.074219 501.875 934.707031 501.925781 Z M 1002.371094 344.421875 L 943.972656 344.421875 L 943.972656 325 L 1002.371094 325 Z M 934.230469 363.097656 L 926.734375 484.34375 L 924.484375 484.34375 C 923.925781 484.34375 923.371094 484.398438 922.824219 484.507812 C 922.273438 484.617188 921.742188 484.777344 921.226562 484.992188 C 920.710938 485.207031 920.21875 485.46875 919.753906 485.777344 C 919.289062 486.089844 918.859375 486.441406 918.460938 486.839844 C 918.066406 487.234375 917.714844 487.664062 917.402344 488.128906 C 917.09375 488.59375 916.832031 489.085938 916.617188 489.601562 C 916.402344 490.117188 916.242188 490.652344 916.132812 491.199219 C 916.023438 491.75 915.96875 492.300781 915.96875 492.863281 L 915.96875 519.714844 L 888.710938 519.714844 L 888.710938 492.863281 C 888.714844 492.300781 888.664062 491.746094 888.558594 491.195312 C 888.453125 490.644531 888.292969 490.109375 888.082031 489.589844 C 887.867188 489.070312 887.609375 488.578125 887.296875 488.113281 C 886.988281 487.644531 886.632812 487.214844 886.238281 486.816406 C 885.839844 486.421875 885.410156 486.066406 884.941406 485.757812 C 884.476562 485.445312 883.984375 485.183594 883.464844 484.972656 C 882.945312 484.761719 882.410156 484.601562 881.859375 484.496094 C 881.308594 484.390625 880.753906 484.339844 880.195312 484.34375 L 878.355469 484.34375 L 870.996094 363.097656 C 871.46875 363.007812 871.933594 362.875 872.386719 362.703125 C 872.84375 362.535156 873.277344 362.324219 873.695312 362.078125 C 874.109375 361.832031 874.503906 361.550781 874.871094 361.234375 C 875.242188 360.921875 875.578125 360.578125 875.886719 360.203125 C 876.195312 359.828125 876.472656 359.433594 876.710938 359.011719 C 876.949219 358.589844 877.152344 358.152344 877.316406 357.695312 C 877.480469 357.238281 877.601562 356.773438 877.683594 356.292969 C 877.769531 355.816406 877.808594 355.335938 877.808594 354.851562 L 877.808594 325 L 926.734375 325 L 926.734375 354.851562 C 926.738281 355.351562 926.785156 355.851562 926.878906 356.34375 C 926.972656 356.835938 927.109375 357.316406 927.289062 357.785156 C 927.46875 358.253906 927.6875 358.703125 927.949219 359.132812 C 928.207031 359.5625 928.503906 359.964844 928.835938 360.339844 C 929.167969 360.714844 929.53125 361.058594 929.925781 361.367188 C 930.320312 361.679688 930.738281 361.953125 931.179688 362.1875 C 931.625 362.421875 932.085938 362.617188 932.5625 362.769531 C 933.039062 362.921875 933.527344 363.03125 934.027344 363.097656 Z M 860.976562 344.421875 L 802.648438 344.421875 L 802.648438 325 L 860.976562 325 Z M 791.609375 501.585938 C 792.222656 501.585938 792.769531 501.585938 793.3125 501.585938 L 870.246094 501.585938 C 870.832031 501.523438 871.398438 501.386719 871.949219 501.175781 L 871.949219 518.761719 L 791.609375 518.761719 Z M 1076.101562 501.585938 L 1153.03125 501.585938 C 1153.617188 501.523438 1154.1875 501.386719 1154.734375 501.175781 L 1154.734375 518.761719 L 1074.398438 518.761719 L 1074.398438 501.515625 C 1074.902344 501.714844 1075.425781 501.851562 1075.964844 501.925781 Z M 1144.105469 344.421875 L 1085.367188 344.421875 L 1085.367188 325 L 1144.105469 325 Z M 1075.964844 363.097656 L 1068.128906 484.34375 L 1065.878906 484.34375 C 1065.320312 484.34375 1064.765625 484.398438 1064.21875 484.507812 C 1063.667969 484.617188 1063.136719 484.777344 1062.621094 484.992188 C 1062.101562 485.207031 1061.613281 485.46875 1061.148438 485.777344 C 1060.683594 486.089844 1060.253906 486.441406 1059.855469 486.839844 C 1059.460938 487.234375 1059.109375 487.664062 1058.796875 488.128906 C 1058.488281 488.59375 1058.222656 489.085938 1058.011719 489.601562 C 1057.796875 490.117188 1057.632812 490.652344 1057.527344 491.199219 C 1057.417969 491.75 1057.363281 492.300781 1057.363281 492.863281 L 1057.363281 519.714844 L 1030.105469 519.714844 L 1030.105469 492.863281 C 1030.105469 492.300781 1030.050781 491.75 1029.941406 491.199219 C 1029.832031 490.652344 1029.671875 490.117188 1029.457031 489.601562 C 1029.242188 489.085938 1028.980469 488.59375 1028.667969 488.128906 C 1028.359375 487.664062 1028.007812 487.234375 1027.609375 486.839844 C 1027.214844 486.441406 1026.785156 486.089844 1026.320312 485.777344 C 1025.855469 485.46875 1025.363281 485.207031 1024.847656 484.992188 C 1024.332031 484.777344 1023.796875 484.617188 1023.25 484.507812 C 1022.699219 484.398438 1022.148438 484.34375 1021.585938 484.34375 L 1019.339844 484.34375 L 1012.320312 363.097656 C 1012.796875 363.007812 1013.261719 362.875 1013.714844 362.703125 C 1014.167969 362.535156 1014.601562 362.324219 1015.019531 362.078125 C 1015.4375 361.832031 1015.828125 361.550781 1016.199219 361.234375 C 1016.566406 360.921875 1016.90625 360.578125 1017.214844 360.203125 C 1017.523438 359.828125 1017.796875 359.433594 1018.035156 359.011719 C 1018.277344 358.589844 1018.476562 358.152344 1018.640625 357.695312 C 1018.804688 357.238281 1018.929688 356.773438 1019.011719 356.292969 C 1019.09375 355.816406 1019.136719 355.335938 1019.132812 354.851562 L 1019.132812 325 L 1068.058594 325 L 1068.058594 354.851562 C 1068.0625 355.351562 1068.113281 355.851562 1068.207031 356.34375 C 1068.300781 356.835938 1068.433594 357.316406 1068.613281 357.785156 C 1068.792969 358.253906 1069.015625 358.703125 1069.273438 359.132812 C 1069.535156 359.5625 1069.832031 359.964844 1070.164062 360.339844 C 1070.496094 360.714844 1070.859375 361.058594 1071.253906 361.367188 C 1071.644531 361.679688 1072.066406 361.953125 1072.507812 362.1875 C 1072.949219 362.421875 1073.410156 362.617188 1073.886719 362.769531 C 1074.367188 362.921875 1074.855469 363.03125 1075.351562 363.097656 Z M 1177.292969 307.960938 L 628.273438 307.960938 L 628.273438 278.996094 L 1176.679688 278.996094 Z M 1177.292969 307.960938 " fill-opacity="1" fill-rule="nonzero"/></g></svg>