<?xml version="1.0" encoding="UTF-8"?><svg xmlns="http://www.w3.org/2000/svg" xmlns:xlink="http://www.w3.org/1999/xlink" contentScriptType="text/ecmascript" width="1805.25" zoomAndPan="magnify" contentStyleType="text/css" viewBox="0 0 1805.25 618.749987" height="618.749987" preserveAspectRatio="xMidYMid meet" version="1.0"><defs><clipPath id="clip-0"><path d="M 460.214844 22 L 1344.046875 22 L 1344.046875 612.792969 L 460.214844 612.792969 Z M 460.214844 22 " clip-rule="nonzero"/></clipPath><clipPath id="clip-1"><path d="M 557 5.652344 L 1223 5.652344 L 1223 417 L 557 417 Z M 557 5.652344 " clip-rule="nonzero"/></clipPath></defs><g clip-path="url(#clip-0)"><path fill="rgb(23.139954%, 64.309692%, 51.759338%)" d="M 1111.886719 42.648438 C 1119.289062 24.925781 1138.105469 18.367188 1149.878906 24.683594 C 1158.132812 29.050781 1162.867188 39.613281 1162.015625 51.03125 C 1171 54.066406 1176.460938 62.808594 1175.367188 71.546875 C 1174.398438 78.589844 1169.175781 84.660156 1162.015625 86.964844 L 1064.183594 86.964844 C 1056.78125 84.902344 1050.589844 79.929688 1049.617188 73.976562 C 1048.039062 65.234375 1057.265625 53.335938 1073.046875 52.246094 C 1076.199219 39.496094 1086.882812 31.605469 1096.835938 32.574219 C 1105.695312 33.542969 1111.035156 41.316406 1111.886719 42.648438 M 816.933594 230.601562 C 980.3125 231.210938 1143.808594 231.816406 1307.183594 232.421875 C 1337.042969 270.0625 1343.234375 301.023438 1343.964844 321.058594 C 1346.269531 381.886719 1301.117188 406.171875 1305.851562 471.007812 C 1309.25 517.875 1334.496094 527.222656 1326.847656 548.605469 C 1311.3125 592.3125 1199.644531 572.632812 1032.140625 582.832031 C 919.015625 589.753906 861.84375 605.292969 796.542969 610.757812 M 796.664062 610.878906 C 761.585938 613.792969 724.082031 613.792969 674.4375 607.964844 C 571.507812 595.824219 536.0625 572.632812 513.972656 550.050781 C 462.753906 497.839844 451.707031 417.582031 465.90625 354.570312 C 481.203125 286.453125 524.292969 244.808594 541.652344 229.628906 C 633.410156 229.996094 725.175781 230.359375 816.941406 230.601562 " fill-opacity="1" fill-rule="nonzero"/></g><g clip-path="url(#clip-1)"><path fill="rgb(69.018555%, 50.19989%, 10.978699%)" d="M 661.691406 355.171875 C 642.269531 351.300781 640.328125 364.765625 640.328125 364.765625 L 638.992188 336.839844 L 621.636719 299.441406 C 621.636719 299.441406 607.675781 284.144531 605.976562 304.554688 L 600.273438 310.371094 L 591.414062 302.734375 C 591.414062 302.734375 579.519531 300.304688 578.308594 310.371094 C 577.210938 320.339844 563.859375 410.792969 575.148438 399.125 L 619.328125 396.089844 C 619.328125 396.089844 627.828125 400.703125 636.445312 400.703125 C 644.941406 400.703125 675.285156 398.398438 675.285156 398.398438 C 675.285156 398.398438 681.113281 358.9375 661.691406 355.171875 Z M 1219.914062 345.460938 C 1220.640625 329.675781 1203.285156 326.410156 1203.285156 326.410156 L 1196.488281 308.671875 C 1177.796875 304.785156 1171.121094 340.847656 1171.121094 340.847656 C 1170.511719 331.011719 1155.460938 324.453125 1155.460938 324.453125 C 1131.308594 321.175781 1132.277344 346.796875 1129.730469 356.765625 C 1127.179688 366.707031 1115.890625 384.191406 1115.890625 384.191406 C 1115.890625 384.191406 1117.832031 393.539062 1111.886719 396.089844 C 1105.9375 398.761719 1106.789062 416.609375 1106.789062 416.609375 L 1145.992188 416.609375 L 1179.128906 414.789062 L 1222.21875 414.789062 C 1222.21875 414.789062 1219.183594 361.367188 1219.914062 345.460938 Z M 1056.292969 228.667969 L 916.222656 232.179688 L 918.894531 245.292969 L 780.765625 243.710938 L 788.046875 229.144531 L 557.914062 228.898438 L 557.914062 221.859375 L 576.363281 145.121094 L 592.746094 129.21875 L 617.144531 86.605469 L 622.484375 68.636719 L 637.292969 59.285156 L 657.199219 51.878906 L 676.378906 18.125 L 695.3125 5.742188 L 717.28125 10.472656 L 735.976562 23.832031 L 752.484375 55.398438 L 775.421875 78.589844 L 788.167969 91.460938 L 798.972656 137.351562 L 815.84375 152.042969 L 825.917969 160.421875 L 838.660156 152.042969 L 856.625 147.320312 L 879.929688 145.367188 L 896.800781 182.398438 L 906.878906 205.832031 L 936.738281 180.210938 L 962.46875 182.15625 L 990.75 204.253906 L 1000.339844 201.460938 L 1011.628906 202.796875 L 1031.535156 206.816406 L 1045.128906 198.546875 L 1056.292969 228.667969 " fill-opacity="1" fill-rule="nonzero"/></g><path fill="rgb(91.758728%, 68.238831%, 9.799194%)" d="M 1191.390625 350.085938 C 1192.117188 334.300781 1174.761719 331.011719 1174.761719 331.011719 L 1167.964844 313.285156 C 1161.289062 311.949219 1156.191406 315.589844 1152.304688 320.945312 L 1148.179688 310.25 C 1137.253906 307.941406 1130.457031 319.234375 1126.695312 328.945312 C 1121.71875 328.339844 1117.710938 328.945312 1114.679688 330.402344 C 1110.914062 327.625 1107.152344 325.910156 1107.152344 325.910156 C 1083 322.632812 1083.96875 348.265625 1081.421875 358.207031 C 1078.871094 368.164062 1067.582031 385.648438 1067.582031 385.648438 C 1067.582031 385.648438 1069.523438 395.011719 1063.578125 397.546875 C 1057.628906 400.21875 1058.480469 418.078125 1058.480469 418.078125 L 1078.144531 418.078125 L 1078.144531 421.113281 L 1117.226562 421.113281 L 1150.363281 419.292969 L 1193.453125 419.292969 C 1193.695312 419.402344 1190.660156 365.871094 1191.390625 350.085938 Z M 714.371094 371.941406 C 694.949219 368.042969 693.007812 381.519531 693.007812 381.519531 L 691.671875 353.59375 L 674.191406 316.199219 C 674.191406 316.199219 660.234375 300.910156 658.535156 321.296875 L 652.832031 327.125 L 643.96875 319.476562 L 643.847656 319.476562 L 640.328125 311.949219 C 640.328125 311.949219 626.371094 296.664062 624.671875 317.046875 L 618.964844 322.875 L 610.105469 315.226562 C 610.105469 315.226562 598.210938 312.796875 596.996094 322.875 C 595.902344 332.832031 582.550781 423.289062 593.839844 411.632812 L 623.335938 409.578125 C 623.699219 415.652344 625.035156 418.550781 627.707031 415.761719 L 671.886719 412.722656 C 671.886719 412.722656 680.382812 417.339844 689 417.339844 C 697.621094 417.339844 727.84375 415.042969 727.84375 415.042969 C 727.84375 415.042969 733.789062 375.691406 714.371094 371.941406 Z M 996.699219 242.132812 L 937.222656 241.648438 L 937.34375 242.132812 L 812.203125 241.042969 L 818.878906 229.277344 L 610.226562 229.144531 L 610.226562 223.4375 L 626.976562 161.28125 L 641.785156 148.402344 L 663.875 113.925781 L 668.730469 99.355469 L 682.203125 91.707031 L 700.289062 85.632812 L 717.769531 58.316406 L 734.761719 48.238281 L 754.667969 52.121094 L 771.539062 62.929688 L 772.753906 64.992188 L 777 58.433594 L 793.996094 48.359375 L 813.902344 52.246094 L 830.773438 63.046875 L 845.703125 88.667969 L 866.578125 107.367188 L 878.109375 117.808594 L 887.941406 154.957031 L 896.800781 161.890625 L 902.023438 161.515625 L 905.785156 168.796875 L 912.339844 173.777344 L 923.871094 166.976562 L 940.136719 163.214844 L 961.253906 161.636719 L 976.425781 191.382812 L 976.792969 191.382812 L 994.511719 203.777344 L 1012.839844 189.683594 L 1036.144531 191.261719 L 1061.757812 209.242188 L 1070.496094 206.921875 L 1080.8125 208.027344 L 1098.777344 211.292969 L 1111.035156 204.617188 L 1121.234375 228.898438 L 994.390625 231.570312 L 996.699219 242.132812 " fill-opacity="1" fill-rule="nonzero"/><path fill="rgb(57.249451%, 85.488892%, 81.959534%)" d="M 1135.917969 81.867188 C 1141.988281 70.699219 1153.882812 63.898438 1166.386719 64.386719 C 1184.957031 64.992188 1194.179688 81.140625 1194.546875 81.867188 C 1200.007812 81.386719 1204.621094 85.753906 1204.742188 90.855469 C 1204.863281 96.074219 1200.128906 100.570312 1194.546875 100.203125 L 1135.917969 100.203125 C 1129.851562 100.570312 1125.117188 95.464844 1125.480469 90.367188 C 1125.84375 85.632812 1130.457031 81.503906 1135.917969 81.867188 " fill-opacity="1" fill-rule="nonzero"/><path fill="rgb(5.879211%, 5.488586%, 4.708862%)" d="M 1167.964844 315.835938 C 1166.75 320.082031 1166.265625 324.210938 1166.265625 328.460938 C 1166.144531 332.710938 1166.386719 336.960938 1166.507812 341.210938 C 1166.628906 345.582031 1166.628906 349.832031 1166.386719 354.203125 C 1166.265625 358.585938 1165.898438 362.835938 1165.292969 367.195312 C 1164.445312 362.945312 1163.957031 358.585938 1163.59375 354.335938 C 1163.230469 349.953125 1162.988281 345.703125 1162.867188 341.332031 C 1162.746094 336.960938 1162.746094 332.589844 1163.472656 328.230469 C 1164.078125 323.726562 1165.414062 319.355469 1167.964844 315.835938 Z M 1137.011719 394.027344 C 1136.039062 395.242188 1135.3125 396.453125 1134.828125 398.15625 C 1133.734375 396.574219 1133.855469 394.402344 1134.464844 392.691406 C 1135.070312 390.871094 1136.039062 389.414062 1137.011719 388.078125 C 1137.984375 386.742188 1139.074219 385.527344 1139.925781 384.433594 C 1140.773438 383.21875 1141.625 382.007812 1142.109375 380.304688 C 1143.203125 381.761719 1143.082031 384.082031 1142.59375 385.769531 C 1141.988281 387.589844 1141.015625 389.046875 1140.046875 390.382812 C 1138.953125 391.597656 1137.863281 392.8125 1137.011719 394.027344 Z M 1129.972656 335.625 C 1130.335938 336.597656 1130.09375 337.808594 1129.488281 338.660156 C 1128.878906 339.511719 1128.152344 340.238281 1127.421875 340.980469 C 1126.695312 341.695312 1126.085938 342.304688 1125.601562 342.910156 C 1125.117188 343.636719 1124.996094 344.125 1124.996094 344.851562 C 1124.996094 345.582031 1125.117188 346.675781 1125.117188 347.765625 C 1125.117188 348.871094 1124.996094 349.832031 1124.875 350.800781 C 1124.511719 352.867188 1124.144531 354.808594 1123.539062 356.765625 C 1122.324219 360.515625 1120.867188 364.15625 1119.65625 367.691406 C 1118.441406 371.332031 1117.589844 374.84375 1117.710938 378.847656 C 1116.984375 377.027344 1116.5 375.085938 1116.378906 373.019531 C 1116.378906 370.957031 1116.5 368.90625 1116.863281 366.949219 C 1117.589844 362.945312 1118.925781 359.300781 1119.898438 355.660156 C 1120.503906 353.835938 1120.867188 352.015625 1121.355469 350.195312 C 1121.476562 349.34375 1121.71875 348.375 1121.71875 347.523438 C 1121.839844 346.675781 1121.839844 345.703125 1121.960938 344.621094 C 1122.082031 343.40625 1122.6875 342.058594 1123.539062 341.332031 C 1124.386719 340.480469 1125.238281 339.996094 1126.085938 339.390625 C 1128.03125 338.417969 1129.972656 337.6875 1129.972656 335.625 Z M 641.179688 376.300781 C 640.691406 375.085938 640.328125 373.992188 640.085938 372.777344 C 639.84375 371.5625 639.722656 370.351562 639.84375 369.015625 C 639.84375 367.800781 640.085938 366.476562 640.570312 365.128906 C 641.542969 366.222656 642.148438 367.316406 642.636719 368.527344 C 643.121094 369.742188 643.484375 370.835938 643.726562 372.050781 C 643.96875 373.265625 644.089844 374.476562 643.96875 375.8125 C 643.96875 377.027344 643.726562 378.363281 643.242188 379.699219 C 642.269531 378.617188 641.664062 377.515625 641.179688 376.300781 Z M 711.941406 180.941406 C 711.335938 176.207031 713.519531 171.226562 717.160156 167.960938 C 718.980469 166.25 721.53125 165.035156 723.59375 164.320312 C 724.6875 163.941406 725.65625 163.578125 726.507812 163.105469 C 727.355469 162.605469 728.085938 162.121094 728.933594 161.390625 C 732.332031 158.476562 735.855469 155.441406 739.011719 152.285156 C 742.164062 149.140625 745.078125 145.609375 747.261719 141.480469 C 746.535156 146.105469 744.109375 150.464844 741.195312 154.105469 C 738.28125 157.871094 734.761719 161.027344 731.363281 164.0625 C 730.390625 164.792969 729.300781 165.640625 728.085938 166.25 C 726.871094 166.855469 725.65625 167.21875 724.566406 167.464844 C 722.382812 168.070312 720.558594 168.796875 718.738281 170.011719 C 715.582031 172.5625 712.914062 176.460938 711.941406 180.941406 Z M 1247.222656 268.96875 C 1260.574219 269.34375 1273.925781 269.949219 1287.277344 271.164062 C 1273.925781 272.246094 1260.574219 272.851562 1247.222656 273.339844 C 1240.546875 273.59375 1233.871094 273.703125 1227.195312 273.824219 L 1207.167969 273.945312 L 1187.140625 273.824219 C 1180.464844 273.703125 1173.789062 273.59375 1167.113281 273.339844 C 1153.761719 272.984375 1140.410156 272.378906 1127.058594 271.164062 C 1140.410156 270.058594 1153.761719 269.453125 1167.113281 268.96875 C 1173.789062 268.738281 1180.464844 268.601562 1187.140625 268.480469 L 1207.167969 268.359375 L 1227.195312 268.480469 C 1233.871094 268.601562 1240.546875 268.738281 1247.222656 268.96875 Z M 1231.082031 480.839844 C 1249.894531 481.214844 1268.585938 481.824219 1287.402344 483.035156 C 1268.585938 484.117188 1249.894531 484.722656 1231.082031 485.210938 C 1221.734375 485.464844 1212.265625 485.574219 1202.921875 485.695312 L 1174.761719 485.816406 L 1146.601562 485.695312 C 1137.253906 485.574219 1127.785156 485.464844 1118.441406 485.210938 C 1099.628906 484.859375 1080.933594 484.25 1062.121094 483.035156 C 1080.933594 481.933594 1099.628906 481.324219 1118.441406 480.839844 C 1127.785156 480.609375 1137.253906 480.476562 1146.601562 480.355469 L 1174.761719 480.230469 L 1202.921875 480.355469 C 1212.265625 480.476562 1221.613281 480.609375 1231.082031 480.839844 Z M 1225.984375 540.820312 C 1246.375 541.316406 1266.886719 541.546875 1287.277344 542.15625 C 1266.886719 542.761719 1246.375 543.003906 1225.984375 543.488281 L 1164.6875 544.21875 C 1123.78125 544.703125 1082.875 544.824219 1041.972656 544.824219 C 1001.066406 544.703125 960.164062 544.703125 919.257812 544.21875 L 857.960938 543.488281 C 837.570312 543.003906 817.054688 542.761719 796.664062 542.15625 C 817.054688 541.546875 837.570312 541.316406 857.960938 540.820312 L 919.257812 540.101562 C 960.164062 539.605469 1001.066406 539.496094 1041.972656 539.496094 C 1082.875 539.605469 1123.78125 539.605469 1164.6875 540.101562 Z M 810.136719 485.089844 C 792.902344 485.332031 775.667969 485.464844 758.308594 485.574219 L 706.480469 485.695312 L 654.652344 485.574219 C 637.414062 485.464844 620.179688 485.332031 602.824219 485.089844 C 568.355469 484.722656 533.761719 483.996094 499.289062 482.902344 C 533.761719 481.824219 568.355469 481.082031 602.824219 480.71875 C 620.058594 480.476562 637.292969 480.355469 654.652344 480.230469 L 706.480469 480.109375 L 758.308594 480.230469 C 775.542969 480.355469 792.78125 480.476562 810.136719 480.71875 C 844.609375 481.082031 879.203125 481.824219 913.675781 482.902344 C 879.203125 483.996094 844.730469 484.722656 810.136719 485.089844 Z M 1071.589844 365.738281 C 1051.925781 366.828125 1032.261719 367.4375 1012.597656 367.921875 C 1002.765625 368.164062 992.933594 368.296875 983.101562 368.40625 L 953.609375 368.527344 L 924.113281 368.40625 C 914.28125 368.296875 904.449219 368.164062 894.617188 367.921875 C 874.953125 367.558594 855.289062 366.949219 835.628906 365.738281 C 855.289062 364.65625 874.953125 364.046875 894.617188 363.550781 C 904.449219 363.308594 914.28125 363.1875 924.113281 363.066406 L 953.609375 362.945312 L 983.101562 363.066406 C 992.933594 363.1875 1002.765625 363.308594 1012.597656 363.550781 C 1032.261719 363.914062 1051.925781 364.523438 1071.589844 365.738281 Z M 717.769531 420.507812 C 743.5 419.292969 769.234375 418.308594 795.085938 417.824219 C 807.953125 417.472656 820.820312 417.339844 833.683594 417.09375 L 872.285156 416.609375 L 910.882812 416.488281 C 923.75 416.488281 936.613281 416.488281 949.480469 416.609375 C 975.214844 416.730469 1001.066406 417.339844 1026.800781 418.1875 C 1001.066406 419.402344 975.335938 420.375 949.480469 420.859375 C 936.613281 421.222656 923.75 421.34375 910.882812 421.589844 L 872.285156 422.074219 L 833.683594 422.195312 C 820.820312 422.195312 807.953125 422.195312 795.085938 422.074219 C 769.355469 421.953125 743.5 421.464844 717.769531 420.507812 Z M 832.230469 314.984375 C 809.894531 314.621094 787.5625 314.011719 765.105469 312.796875 C 787.441406 311.707031 809.773438 311.097656 832.230469 310.625 C 843.394531 310.371094 854.5625 310.25 865.730469 310.128906 L 899.230469 310.019531 L 932.730469 310.128906 C 943.898438 310.25 955.066406 310.371094 966.230469 310.625 C 988.566406 310.976562 1010.898438 311.585938 1033.355469 312.796875 C 1011.019531 313.890625 988.6875 314.5 966.230469 314.984375 C 955.066406 315.226562 943.898438 315.347656 932.730469 315.480469 L 899.230469 315.589844 L 865.730469 315.480469 C 854.5625 315.347656 843.394531 315.226562 832.230469 314.984375 Z M 693.128906 411.265625 C 693.371094 405.195312 693.128906 399.125 692.886719 392.933594 C 692.644531 389.777344 692.523438 386.621094 692.035156 383.585938 C 691.550781 380.550781 690.699219 377.515625 689 375.085938 C 686.816406 371.941406 683.539062 369.378906 679.777344 368.164062 C 682.203125 369.863281 683.417969 373.019531 683.660156 376.058594 C 683.902344 379.09375 683.296875 382.007812 682.570312 384.796875 C 681.839844 387.46875 680.992188 390.019531 680.503906 392.691406 C 680.019531 395.242188 679.898438 397.910156 680.871094 400.703125 C 678.5625 398.761719 677.59375 395.484375 677.59375 392.582031 C 677.59375 389.546875 678.199219 386.621094 678.925781 383.949219 C 679.65625 381.277344 680.382812 378.726562 680.746094 376.191406 C 681.113281 373.628906 680.992188 370.957031 679.777344 368.40625 C 677.714844 367.800781 675.527344 367.4375 673.464844 367.691406 C 668.367188 368.164062 663.511719 371.078125 660.597656 375.449219 C 659.992188 383.339844 659.261719 391.113281 660.234375 398.761719 L 660.476562 400.472656 L 658.777344 400.472656 L 642.269531 400.21875 C 640.933594 400.21875 639.480469 400.097656 638.507812 400.339844 C 637.535156 400.582031 636.929688 401.3125 636.929688 402.292969 C 636.808594 403.375 637.292969 404.589844 637.78125 405.683594 C 638.386719 406.773438 639.113281 407.867188 639.964844 408.839844 L 641.421875 410.417969 L 639.359375 410.660156 C 632.074219 411.402344 624.792969 411.632812 617.386719 411.632812 C 610.105469 411.632812 602.699219 411.402344 595.539062 410.792969 C 602.824219 410.902344 610.105469 410.902344 617.386719 410.539062 C 624.0625 410.1875 630.617188 409.578125 637.171875 408.839844 C 636.6875 408.230469 636.203125 407.503906 635.835938 406.773438 C 635.109375 405.441406 634.503906 403.984375 634.625 402.292969 C 634.625 401.433594 634.867188 400.472656 635.472656 399.734375 C 636.082031 399.003906 636.808594 398.398438 637.78125 398.15625 C 639.480469 397.667969 640.933594 397.789062 642.269531 397.789062 L 657.078125 397.667969 C 656.109375 389.777344 656.835938 382.007812 657.320312 374.371094 C 657.5625 370.230469 657.6875 366.222656 657.5625 362.226562 C 657.441406 360.273438 657.199219 358.207031 656.957031 356.265625 L 656.351562 350.316406 C 653.800781 342.910156 651.011719 335.515625 647.734375 328.460938 C 646.035156 324.941406 644.332031 321.417969 642.269531 318.140625 C 640.207031 314.984375 638.023438 311.585938 635.109375 309.886719 C 632.4375 308.195312 628.433594 308.671875 627.460938 311.097656 C 626.855469 312.445312 626.855469 314.269531 626.613281 316.441406 C 626.492188 317.535156 626.25 318.75 625.640625 319.839844 C 625.277344 320.570312 624.792969 321.417969 624.0625 322.160156 C 624.183594 325.0625 625.398438 327.734375 626.613281 330.28125 C 628.433594 333.695312 630.738281 337.082031 631.953125 341.210938 C 632.558594 343.273438 632.804688 345.703125 632.316406 347.886719 C 631.832031 350.085938 630.980469 352.015625 630.011719 353.835938 C 628.3125 357.480469 626.371094 361.011719 624.183594 364.402344 C 625.035156 360.40625 626.128906 356.628906 627.339844 352.746094 C 627.949219 350.800781 628.675781 349.101562 628.796875 347.28125 C 629.039062 345.582031 628.796875 343.882812 628.3125 342.195312 C 627.339844 338.660156 625.277344 335.261719 623.820312 331.375 C 623.09375 329.445312 622.605469 327.367188 622.484375 325.195312 C 622.484375 324.453125 622.484375 323.726562 622.605469 322.996094 C 621.394531 323.726562 619.816406 323.847656 618.480469 323.484375 C 617.023438 322.996094 616.050781 322.160156 615.324219 321.417969 C 613.746094 319.839844 612.652344 318.515625 611.320312 317.910156 C 608.527344 316.5625 604.644531 317.65625 601.972656 319.839844 C 599.179688 322.027344 597.722656 325.425781 596.996094 329.070312 C 596.269531 332.710938 596.390625 336.730469 596.269531 340.722656 C 596.269531 342.425781 596.148438 344.246094 596.148438 345.945312 C 597.117188 347.050781 597.96875 348.265625 598.574219 349.589844 C 599.667969 351.90625 600.515625 354.335938 600.757812 356.871094 C 601 359.300781 601 361.730469 601.125 364.046875 C 601.246094 366.34375 601.488281 368.527344 602.699219 370.726562 C 600.394531 369.511719 599.058594 366.949219 598.332031 364.523438 C 597.601562 362.09375 597.359375 359.664062 597.117188 357.371094 C 596.875 355.292969 596.511719 353.230469 596.023438 351.300781 C 595.902344 355.78125 595.660156 360.273438 595.417969 364.765625 C 594.933594 372.777344 594.082031 380.671875 593.234375 388.5625 C 592.382812 396.453125 591.414062 404.347656 590.320312 412.238281 L 592.019531 388.441406 C 592.625 380.550781 592.992188 372.546875 593.234375 364.65625 C 593.597656 356.765625 593.597656 348.738281 593.476562 340.847656 C 593.355469 336.839844 593.234375 332.832031 593.839844 328.703125 C 594.203125 326.640625 594.8125 324.589844 595.660156 322.632812 C 596.511719 320.691406 597.96875 318.75 599.789062 317.414062 C 601.488281 315.957031 603.550781 314.984375 605.734375 314.378906 C 607.921875 313.890625 610.46875 313.890625 612.652344 314.875 C 613.746094 315.347656 614.839844 316.089844 615.566406 316.925781 C 616.417969 317.65625 617.023438 318.382812 617.628906 318.992188 C 618.964844 320.339844 619.9375 320.570312 620.785156 319.960938 C 621.636719 319.355469 622.363281 317.777344 622.605469 316.089844 C 622.851562 314.269531 622.730469 312.070312 623.699219 309.640625 C 624.183594 308.429688 625.15625 307.335938 626.25 306.605469 C 627.339844 305.878906 628.554688 305.390625 629.769531 305.269531 C 632.195312 304.90625 634.746094 305.515625 636.6875 306.726562 C 638.75 307.941406 640.207031 309.519531 641.542969 311.234375 C 642.878906 312.796875 644.089844 314.5 645.183594 316.320312 C 647.367188 319.839844 649.1875 323.375 650.886719 327.125 C 654.164062 334.410156 656.957031 342.058594 659.507812 349.589844 L 659.628906 349.832031 L 659.628906 350.085938 L 660.234375 356.15625 C 660.476562 358.207031 660.71875 360.273438 660.839844 362.457031 C 660.964844 366.707031 660.839844 370.835938 660.476562 374.976562 L 660.476562 375.449219 C 663.269531 371.078125 668.003906 367.800781 673.222656 367.085938 C 679.777344 366.222656 686.574219 369.378906 690.335938 374.84375 C 692.277344 377.636719 693.25 380.914062 693.734375 384.082031 C 694.222656 387.226562 694.464844 390.382812 694.707031 393.664062 C 695.070312 399.976562 695.070312 406.410156 694.828125 412.726562 L 694.828125 413.332031 L 694.222656 413.574219 L 690.335938 414.910156 L 690.09375 414.910156 C 683.539062 414.910156 676.984375 414.667969 670.308594 414.667969 C 663.753906 414.546875 657.199219 414.304688 650.523438 414.058594 C 657.078125 413.828125 663.632812 413.574219 670.308594 413.453125 C 676.863281 413.332031 683.417969 413.222656 689.851562 413.222656 Z M 1173.0625 427.792969 C 1168.085938 428.871094 1163.109375 430.085938 1158.132812 431.542969 L 1160.679688 433.863281 L 1163.835938 436.765625 L 1159.589844 437.007812 C 1155.460938 437.25 1151.335938 437.25 1147.207031 437.503906 C 1143.082031 437.613281 1138.953125 437.613281 1134.828125 437.738281 L 1122.445312 437.738281 C 1118.320312 437.613281 1114.191406 437.613281 1109.945312 437.25 C 1114.070312 436.644531 1118.199219 436.292969 1122.324219 435.792969 C 1126.453125 435.429688 1130.578125 435.078125 1134.707031 434.824219 L 1147.085938 434.09375 C 1149.757812 433.972656 1152.546875 433.863281 1155.21875 433.730469 L 1153.640625 432.273438 L 1151.457031 430.222656 L 1154.367188 429.359375 C 1160.4375 427.660156 1166.628906 426.324219 1172.820312 425.59375 C 1179.007812 424.867188 1185.320312 424.503906 1191.511719 424.867188 C 1185.199219 425.59375 1179.128906 426.578125 1173.0625 427.792969 Z M 1193.695312 418.429688 C 1192.117188 404.953125 1191.027344 391.367188 1190.054688 377.757812 C 1189.933594 375.8125 1189.8125 373.871094 1189.691406 371.941406 C 1189.203125 373.507812 1188.71875 374.976562 1187.992188 376.300781 C 1187.261719 377.878906 1186.414062 379.335938 1185.5625 380.671875 C 1184.714844 382.128906 1183.742188 383.476562 1182.773438 384.796875 C 1181.679688 386.132812 1180.585938 387.46875 1179.25 388.683594 C 1179.25 386.863281 1179.738281 385.164062 1180.222656 383.476562 C 1180.828125 381.761719 1181.558594 380.304688 1182.40625 378.726562 C 1183.257812 377.269531 1184.351562 375.8125 1185.5625 374.601562 C 1186.777344 373.386719 1187.992188 372.292969 1189.570312 371.441406 C 1189.324219 366.707031 1188.960938 362.09375 1188.71875 357.371094 C 1188.476562 353.957031 1188.476562 350.558594 1188.113281 347.402344 C 1187.75 344.246094 1187.019531 341.210938 1185.320312 339.160156 C 1184.472656 338.054688 1183.5 337.335938 1182.164062 336.597656 C 1180.828125 335.867188 1179.128906 335.261719 1177.429688 334.300781 C 1176.582031 333.804688 1175.730469 333.195312 1174.882812 332.347656 C 1174.519531 331.984375 1174.152344 331.496094 1173.789062 331.132812 C 1173.425781 330.660156 1173.183594 330.28125 1172.941406 329.796875 C 1171.96875 327.976562 1171.484375 326.15625 1171.121094 324.453125 C 1170.753906 322.765625 1170.390625 321.054688 1170.027344 319.597656 C 1169.664062 318.140625 1169.054688 316.804688 1168.328125 315.957031 C 1168.207031 315.710938 1167.964844 315.589844 1167.71875 315.480469 C 1167.476562 315.347656 1167.234375 315.226562 1166.992188 315.105469 C 1166.507812 314.875 1165.898438 314.875 1165.292969 314.875 C 1164.078125 314.875 1162.5 315.347656 1161.042969 315.957031 C 1155.339844 318.382812 1150.726562 323.484375 1147.8125 329.445312 C 1144.902344 335.382812 1143.445312 342.058594 1141.988281 348.738281 C 1142.351562 341.9375 1143.082031 335.140625 1145.628906 328.582031 C 1148.179688 322.160156 1152.667969 315.957031 1159.46875 312.675781 C 1161.167969 311.949219 1162.867188 311.234375 1164.929688 310.976562 C 1167.113281 310.734375 1169.542969 311.585938 1171.121094 313.285156 C 1172.695312 314.984375 1173.425781 316.925781 1173.910156 318.625 C 1174.394531 320.339844 1174.761719 322.027344 1175.246094 323.605469 C 1175.609375 325.195312 1176.09375 326.640625 1176.824219 327.855469 C 1177.550781 329.070312 1178.28125 329.796875 1179.496094 330.527344 C 1180.707031 331.265625 1182.285156 331.738281 1183.984375 332.589844 C 1185.683594 333.441406 1187.503906 334.773438 1188.71875 336.355469 C 1191.269531 339.632812 1191.996094 343.515625 1192.480469 347.050781 C 1192.847656 350.691406 1192.847656 353.960938 1192.96875 357.371094 C 1193.089844 364.15625 1193.332031 370.957031 1193.453125 377.757812 C 1194.058594 391.234375 1194.058594 404.832031 1193.695312 418.429688 Z M 1125.601562 417.824219 C 1128.757812 417.21875 1132.035156 416.863281 1135.191406 416.609375 C 1138.46875 416.488281 1141.625 416.488281 1144.902344 416.863281 C 1148.179688 417.09375 1151.335938 417.703125 1154.492188 418.6875 C 1151.214844 419.160156 1148.058594 419.523438 1144.902344 419.765625 C 1141.746094 420.007812 1138.589844 420.253906 1135.433594 420.375 C 1132.277344 420.507812 1129.121094 420.617188 1125.964844 420.738281 C 1122.8125 420.859375 1119.535156 420.859375 1116.257812 420.617188 C 1119.289062 419.292969 1122.445312 418.429688 1125.601562 417.824219 Z M 1141.988281 348.375 C 1142.714844 352.515625 1142.960938 356.765625 1142.960938 361.011719 C 1142.960938 363.066406 1142.839844 365.261719 1142.714844 367.316406 C 1142.59375 369.378906 1142.351562 371.441406 1142.59375 373.265625 C 1142.839844 375.085938 1143.566406 376.542969 1145.023438 377.40625 C 1145.75 377.878906 1146.722656 378.242188 1147.816406 378.847656 C 1148.90625 379.457031 1149.878906 380.441406 1150.605469 381.398438 C 1151.941406 383.476562 1152.546875 385.527344 1153.15625 387.46875 C 1153.882812 389.414062 1154.492188 391.476562 1155.097656 393.539062 C 1156.191406 397.546875 1157.039062 401.796875 1157.28125 406.046875 C 1157.402344 410.296875 1156.675781 414.667969 1154.734375 418.429688 C 1155.339844 416.488281 1155.824219 414.4375 1155.945312 412.359375 C 1156.066406 410.296875 1156.066406 408.230469 1155.824219 406.167969 C 1155.339844 402.039062 1154.246094 398.15625 1152.914062 394.269531 C 1152.304688 392.328125 1151.457031 390.382812 1150.726562 388.441406 C 1150 386.511719 1149.269531 384.554688 1148.300781 383.097656 C 1147.816406 382.371094 1147.207031 381.886719 1146.480469 381.398438 C 1145.75 380.914062 1144.660156 380.550781 1143.6875 379.941406 C 1142.59375 379.335938 1141.625 378.363281 1140.894531 377.269531 C 1140.289062 376.191406 1139.925781 374.976562 1139.804688 373.761719 C 1139.4375 371.441406 1139.804688 369.257812 1139.925781 367.191406 C 1140.167969 365.128906 1140.289062 363.066406 1140.289062 361.011719 C 1140.410156 356.871094 1140.289062 352.746094 1139.925781 348.617188 C 1139.683594 346.550781 1139.4375 344.488281 1139.074219 342.546875 C 1138.710938 340.601562 1138.226562 338.550781 1137.253906 336.839844 C 1136.769531 335.988281 1136.160156 335.140625 1135.433594 334.53125 C 1134.707031 333.925781 1133.855469 333.441406 1132.886719 333.085938 C 1131.0625 332.480469 1128.757812 332.710938 1127.179688 334.167969 C 1127.785156 333.316406 1128.757812 332.710938 1129.730469 332.347656 C 1130.820312 332.105469 1131.914062 331.984375 1133.007812 332.226562 C 1134.097656 332.480469 1135.070312 332.832031 1136.039062 333.5625 C 1137.011719 334.167969 1137.738281 335.019531 1138.347656 335.988281 C 1139.5625 337.8125 1140.289062 339.996094 1140.894531 342.058594 C 1141.382812 344.246094 1141.746094 346.308594 1141.988281 348.375 Z M 1088.945312 389.292969 C 1088.703125 390.261719 1088.582031 391.234375 1088.460938 392.328125 C 1088.460938 393.296875 1088.460938 394.269531 1088.703125 395.484375 C 1088.824219 396.574219 1089.066406 398.15625 1088.21875 399.734375 C 1087.367188 401.3125 1086.03125 401.917969 1085.183594 402.402344 C 1083.484375 403.507812 1082.269531 405.074219 1081.421875 407.019531 C 1079.84375 410.539062 1079.476562 414.789062 1079.355469 418.917969 C 1082.511719 419.039062 1085.667969 419.160156 1088.824219 419.402344 C 1092.34375 419.523438 1095.742188 419.765625 1099.261719 420.007812 C 1095.742188 420.253906 1092.34375 420.375 1088.824219 420.507812 C 1085.304688 420.617188 1081.90625 420.738281 1078.386719 420.859375 L 1077.414062 420.859375 L 1077.414062 419.898438 C 1077.171875 415.394531 1077.171875 410.539062 1078.992188 406.046875 C 1079.84375 403.738281 1081.542969 401.6875 1083.605469 400.097656 C 1085.789062 398.652344 1086.03125 398.277344 1085.667969 395.96875 C 1085.425781 394.875 1085.304688 393.539062 1085.304688 392.328125 C 1085.304688 391.113281 1085.546875 389.777344 1085.789062 388.5625 C 1086.398438 386.132812 1087.488281 383.949219 1088.582031 381.882812 C 1091.007812 377.878906 1093.800781 374.367188 1096.105469 370.59375 C 1098.414062 366.949219 1099.503906 362.699219 1100.355469 358.328125 C 1101.082031 353.957031 1101.691406 349.34375 1102.90625 344.851562 C 1104.117188 340.371094 1106.546875 335.988281 1110.066406 332.953125 C 1111.765625 331.375 1113.828125 330.160156 1116.011719 329.445312 C 1118.199219 328.703125 1120.625 328.703125 1122.808594 329.445312 C 1120.625 328.945312 1118.320312 329.3125 1116.257812 330.160156 C 1114.191406 331.011719 1112.492188 332.347656 1110.914062 333.925781 C 1108.003906 337.203125 1105.9375 341.210938 1105.089844 345.460938 C 1104.117188 349.710938 1103.875 354.335938 1103.148438 358.816406 C 1102.539062 363.308594 1101.328125 368.042969 1098.777344 372.171875 C 1096.472656 376.191406 1093.558594 379.832031 1091.375 383.585938 C 1090.402344 385.296875 1089.429688 387.226562 1088.945312 389.292969 Z M 862.816406 172.210938 C 864.03125 171.710938 865.242188 171.46875 866.09375 171.46875 C 866.945312 171.46875 867.066406 171.601562 867.429688 171.957031 L 868.644531 173.292969 C 868.398438 174.382812 868.15625 175.476562 868.035156 176.570312 C 867.792969 178.027344 867.550781 179.363281 867.066406 180.574219 C 866.578125 181.667969 865.972656 182.53125 865 183.488281 C 864.03125 184.351562 862.816406 185.3125 861.601562 186.402344 C 860.390625 187.496094 859.296875 188.832031 858.566406 190.289062 C 856.992188 193.203125 856.503906 196.601562 857.355469 199.527344 C 858.082031 196.492188 859.296875 193.933594 860.996094 191.746094 C 861.84375 190.652344 862.816406 189.683594 863.789062 188.953125 C 864.878906 188.105469 866.09375 187.253906 867.308594 186.171875 C 867.914062 185.566406 868.519531 184.960938 869.007812 184.21875 C 869.492188 183.488281 869.976562 182.640625 870.21875 181.789062 C 870.707031 180.101562 870.828125 178.390625 870.707031 176.933594 L 870.707031 174.503906 L 872.769531 172.5625 C 873.742188 171.601562 875.195312 170.5 876.410156 169.648438 C 877.746094 168.675781 879.203125 167.960938 880.660156 167.21875 C 883.574219 165.761719 886.605469 164.792969 889.761719 164.425781 C 893.039062 164.0625 895.46875 164.320312 898.136719 165.640625 C 900.6875 166.976562 903.113281 169.175781 905.179688 171.710938 C 907.242188 174.261719 909.0625 177.066406 910.519531 180.101562 C 911.609375 182.398438 912.582031 184.824219 913.1875 187.132812 C 912.097656 188.226562 911.246094 189.441406 910.519531 190.898438 C 909.304688 193.457031 908.941406 196.238281 908.332031 198.546875 C 907.121094 203.171875 902.628906 205.222656 897.894531 207.53125 C 895.589844 208.746094 893.039062 210.203125 891.097656 212.507812 C 889.15625 214.816406 888.183594 217.742188 887.820312 220.523438 C 887.214844 226.242188 889.15625 231.328125 891.21875 236.183594 C 890.492188 230.964844 889.519531 225.742188 890.613281 221.007812 C 891.21875 218.699219 892.070312 216.527344 893.648438 214.816406 C 895.101562 213.117188 897.289062 211.902344 899.472656 210.808594 C 901.65625 209.59375 904.207031 208.5 906.511719 206.679688 C 907.605469 205.710938 908.699219 204.617188 909.425781 203.402344 C 910.277344 202.066406 910.761719 200.609375 911.003906 199.273438 C 911.488281 196.492188 911.488281 193.933594 912.097656 191.636719 C 912.339844 190.53125 912.824219 189.441406 913.429688 188.46875 C 913.429688 188.710938 913.554688 188.953125 913.554688 189.316406 L 913.796875 190.652344 C 913.917969 191.140625 913.917969 191.636719 914.039062 192.109375 C 914.28125 193.082031 914.523438 194.066406 914.886719 195.023438 C 915.496094 196.847656 916.222656 198.667969 917.074219 200.367188 C 918.773438 203.886719 920.714844 206.921875 923.140625 210.082031 L 925.207031 212.75 L 926.660156 211.539062 C 927.996094 216.152344 929.210938 220.644531 930.425781 225.257812 C 931.152344 228.171875 931.882812 230.964844 932.488281 233.878906 C 932.851562 235.347656 933.09375 236.792969 933.214844 238.128906 C 933.335938 238.855469 933.460938 239.597656 933.460938 240.203125 L 933.460938 240.675781 C 923.628906 240.3125 913.917969 240.203125 904.085938 239.949219 C 893.769531 239.828125 883.574219 239.597656 873.253906 239.597656 C 862.9375 239.597656 852.742188 239.464844 842.425781 239.464844 C 833.441406 239.464844 824.582031 239.597656 815.601562 239.707031 C 817.785156 234.972656 820.089844 230.113281 822.398438 225.378906 C 825.308594 219.429688 828.464844 213.492188 831.621094 207.652344 C 833.199219 204.738281 834.777344 201.824219 836.476562 198.921875 L 839.027344 194.539062 L 841.574219 190.289062 C 844.367188 185.796875 847.28125 181.316406 850.558594 176.933594 L 851.648438 179.242188 L 855.167969 176.570312 C 856.261719 175.71875 857.476562 174.871094 858.8125 174.140625 C 860.265625 173.292969 861.480469 172.683594 862.816406 172.210938 Z M 586.070312 231.097656 C 595.902344 230.964844 605.734375 230.84375 615.445312 230.492188 C 623.214844 230.234375 631.105469 229.882812 638.871094 229.277344 L 661.691406 228.777344 L 636.203125 228.292969 C 629.28125 227.929688 622.363281 227.6875 615.445312 227.5625 C 613.867188 227.5625 612.167969 227.5625 610.589844 227.453125 C 613.261719 212.386719 616.296875 197.332031 620.542969 182.640625 C 621.636719 178.886719 622.851562 175.113281 624.304688 171.601562 C 625.035156 169.78125 625.761719 168.070312 626.734375 166.371094 C 627.582031 164.671875 628.675781 163.105469 629.769531 162.121094 C 630.011719 161.757812 630.375 161.636719 630.617188 161.515625 L 630.859375 161.390625 L 631.226562 161.148438 L 631.953125 160.785156 C 632.4375 160.542969 632.925781 160.179688 633.410156 159.933594 L 634.625 158.964844 C 635.472656 158.355469 636.203125 157.640625 637.050781 156.898438 L 639.234375 154.714844 C 642.027344 151.679688 644.578125 148.535156 646.882812 145.367188 C 648.339844 143.421875 649.675781 141.480469 651.011719 139.539062 C 651.011719 140.035156 651.132812 140.507812 651.132812 140.996094 C 651.375 142.464844 651.980469 144.152344 653.4375 145.242188 C 654.164062 145.851562 655.015625 146.214844 655.742188 146.457031 C 656.59375 146.714844 657.320312 146.714844 658.050781 146.824219 C 659.507812 147.066406 660.355469 147.320312 661.085938 148.28125 C 661.691406 149.140625 662.175781 150.464844 662.664062 151.800781 C 663.148438 153.136719 663.511719 154.605469 663.875 155.929688 C 664.605469 158.722656 665.332031 161.515625 665.816406 164.425781 C 667.03125 170.132812 668.125 176.082031 670.066406 181.789062 C 671.039062 184.703125 672.25 187.496094 673.585938 190.167969 C 675.042969 192.851562 676.863281 195.28125 679.046875 197.332031 C 677.59375 194.78125 676.257812 192.109375 675.164062 189.441406 C 674.191406 186.648438 673.34375 183.855469 672.738281 181.0625 C 671.402344 175.355469 670.550781 169.527344 669.339844 163.710938 C 668.730469 160.785156 668.003906 157.871094 667.152344 154.957031 C 666.667969 153.5 666.183594 152.042969 665.574219 150.707031 C 665.089844 149.371094 664.484375 147.792969 663.148438 146.335938 C 662.539062 145.609375 661.691406 145 660.71875 144.757812 C 659.871094 144.394531 658.898438 144.394531 658.171875 144.394531 C 656.59375 144.394531 655.378906 144.394531 654.410156 143.785156 C 653.316406 143.179688 652.585938 141.964844 652.101562 140.640625 C 651.859375 140.035156 651.617188 139.429688 651.496094 138.6875 C 654.410156 134.316406 657.199219 129.824219 660.113281 125.460938 C 661.207031 123.757812 662.296875 122.175781 663.390625 120.601562 L 663.753906 119.996094 L 664.238281 119.265625 C 664.484375 118.78125 664.847656 118.292969 665.089844 117.808594 C 665.574219 116.835938 666.0625 115.746094 666.304688 114.773438 C 667.761719 110.644531 668.125 106.757812 669.582031 103.605469 C 670.1875 102.027344 671.160156 100.6875 672.25 99.472656 C 673.464844 98.382812 674.800781 97.410156 676.378906 96.679688 C 677.957031 95.953125 679.65625 95.464844 681.476562 94.980469 L 684.144531 94.375 L 687.179688 93.769531 C 691.1875 92.917969 695.3125 91.945312 699.199219 89.882812 C 701.140625 88.910156 703.082031 87.574219 704.78125 85.753906 C 705.144531 85.269531 705.507812 84.785156 705.875 84.296875 C 705.875 85.027344 705.996094 85.753906 706.117188 86.359375 C 706.601562 88.789062 707.574219 91.097656 708.300781 93.285156 C 709.027344 95.589844 709.636719 97.652344 709.757812 99.839844 C 709.878906 102.027344 709.757812 104.332031 709.515625 106.640625 C 709.273438 108.945312 709.027344 111.375 708.90625 113.800781 C 708.785156 116.230469 708.785156 118.660156 709.027344 121.210938 C 709.515625 126.066406 710.726562 131.039062 713.398438 135.179688 C 712.183594 130.429688 711.820312 125.820312 711.820312 121.210938 C 711.941406 116.472656 712.550781 111.980469 713.15625 107.125 C 713.398438 104.695312 713.519531 102.144531 713.15625 99.597656 C 712.792969 97.046875 711.941406 94.496094 710.851562 92.3125 C 709.878906 90.125 708.664062 88.0625 707.816406 85.875 C 707.328125 84.785156 706.964844 83.6875 706.722656 82.476562 L 706.722656 82.355469 C 706.964844 81.75 707.207031 81.019531 707.328125 80.289062 C 707.328125 79.929688 707.453125 79.5625 707.453125 79.199219 L 707.453125 79.074219 C 710.605469 72.886719 714.492188 66.691406 719.105469 61.46875 C 721.53125 58.800781 724.082031 56.371094 726.871094 54.550781 C 729.664062 52.726562 732.699219 51.515625 735.734375 51.636719 L 736.824219 51.636719 C 737.1875 51.636719 737.554688 51.636719 738.039062 51.753906 L 740.832031 52.246094 C 742.652344 52.609375 744.472656 52.851562 746.171875 53.335938 C 749.691406 54.183594 753.210938 55.15625 756.367188 56.496094 C 762.558594 59.164062 767.65625 63.78125 772.511719 69 C 774.089844 73.25 776.03125 77.253906 778.09375 81.261719 C 780.277344 85.390625 782.707031 89.519531 785.496094 93.402344 C 788.289062 97.285156 791.445312 100.929688 795.207031 104.210938 L 798.121094 106.515625 L 801.398438 108.578125 C 802.492188 109.1875 803.828125 109.675781 804.917969 110.160156 L 806.496094 110.765625 C 806.496094 110.765625 806.617188 110.765625 806.617188 110.890625 C 806.132812 111.25 805.769531 111.613281 805.28125 112.101562 C 804.433594 112.953125 803.703125 114.167969 803.21875 115.257812 C 802.613281 116.230469 802.125 117.320312 801.640625 118.175781 C 801.035156 119.023438 800.425781 119.75 799.699219 120.238281 C 798.972656 120.722656 798.363281 120.84375 797.394531 120.84375 C 796.421875 120.84375 795.207031 120.722656 793.875 120.722656 C 792.539062 120.84375 791.203125 121.085938 789.988281 121.570312 C 785.011719 123.515625 781.613281 127.394531 779.066406 131.28125 C 776.515625 135.179688 774.453125 139.292969 771.296875 142.695312 C 775.421875 140.386719 778.457031 136.394531 781.371094 132.980469 C 784.285156 129.582031 787.441406 126.308594 791.324219 124.972656 C 792.296875 124.605469 793.265625 124.363281 794.238281 124.363281 C 795.207031 124.246094 796.300781 124.363281 797.636719 124.363281 C 798.972656 124.363281 800.671875 123.878906 801.761719 122.90625 C 802.976562 121.9375 803.703125 120.84375 804.191406 119.632812 C 804.796875 118.535156 805.160156 117.320312 805.527344 116.230469 C 805.890625 115.136719 806.253906 114.167969 806.859375 113.316406 C 807.226562 112.710938 807.710938 112.222656 808.074219 111.738281 C 811.109375 113.4375 813.65625 116.472656 815.722656 119.871094 C 817.785156 123.515625 819.363281 127.636719 820.578125 131.765625 C 823.003906 140.144531 824.460938 149.25 824.945312 157.992188 L 825.066406 160.785156 L 827.738281 161.390625 C 827.859375 161.390625 828.101562 161.515625 828.222656 161.515625 C 827.132812 162.847656 825.796875 163.941406 824.460938 165.035156 C 823.125 166.140625 821.789062 167.355469 820.457031 168.566406 C 817.785156 170.996094 815.355469 173.292969 812.929688 175.960938 C 811.714844 177.296875 810.503906 178.886719 809.652344 180.574219 C 808.800781 182.277344 808.195312 184.21875 808.074219 186.039062 C 807.589844 189.816406 808.074219 193.324219 808.925781 196.847656 C 809.53125 193.324219 809.894531 189.816406 810.867188 186.648438 C 811.835938 183.367188 813.414062 180.820312 815.722656 178.390625 C 818.027344 175.851562 820.457031 173.167969 822.640625 170.5 C 823.730469 169.175781 824.824219 167.707031 825.917969 166.25 C 826.886719 164.792969 827.980469 163.214844 828.464844 161.515625 C 830.410156 162 832.59375 162.605469 834.535156 163.457031 C 836.71875 164.320312 838.785156 165.277344 840.726562 166.371094 C 842.667969 167.585938 844.488281 168.796875 846.066406 170.253906 C 847.523438 171.710938 848.859375 173.425781 849.707031 175.246094 L 850.3125 176.460938 C 846.550781 180.453125 843.152344 184.703125 839.875 189.074219 C 835.871094 194.417969 832.230469 200.136719 828.585938 205.832031 C 824.945312 211.539062 821.667969 217.367188 818.390625 223.207031 C 817.179688 225.257812 816.085938 227.453125 814.992188 229.507812 C 806.011719 228.898438 797.148438 228.535156 788.167969 228.292969 C 778.335938 228.0625 768.625 227.929688 758.792969 227.929688 C 748.964844 227.929688 739.253906 228.0625 729.421875 228.292969 C 719.589844 228.535156 709.878906 228.898438 700.046875 229.75 C 709.878906 230.492188 719.589844 230.964844 729.421875 231.207031 C 739.253906 231.449219 748.964844 231.570312 758.792969 231.570312 C 768.625 231.570312 778.335938 231.449219 788.167969 231.207031 C 797.027344 230.964844 805.890625 230.601562 814.871094 229.992188 C 812.929688 233.757812 810.988281 237.398438 809.167969 241.285156 L 807.46875 244.804688 L 811.472656 244.925781 C 821.789062 245.058594 831.984375 245.167969 842.304688 245.167969 C 852.621094 245.292969 862.816406 245.167969 873.132812 245.058594 C 883.449219 245.058594 893.648438 244.804688 903.964844 244.683594 C 914.28125 244.453125 924.476562 244.199219 934.792969 243.957031 L 936.25 243.957031 L 936.371094 242.863281 C 936.371094 242.378906 936.492188 241.890625 936.492188 241.417969 C 936.492188 240.921875 936.371094 240.554688 936.371094 240.203125 C 936.25 239.339844 936.128906 238.613281 936.007812 237.882812 C 935.644531 236.425781 935.28125 234.972656 934.914062 233.527344 C 934.066406 230.601562 933.09375 227.808594 932.125 225.027344 C 930.546875 220.523438 928.726562 216.03125 926.90625 211.539062 L 927.753906 210.808594 C 933.214844 206.074219 939.164062 201.582031 945.234375 197.816406 C 948.265625 195.886719 951.421875 194.175781 954.578125 193.082031 C 956.15625 192.476562 957.734375 192.109375 958.949219 192.109375 L 959.796875 192.109375 L 961.132812 192.355469 C 962.105469 192.476562 963.074219 192.597656 963.925781 192.71875 C 969.628906 193.324219 975.09375 194.066406 980.070312 195.753906 C 978.371094 196.847656 976.792969 197.9375 975.214844 199.152344 C 973.027344 200.851562 970.964844 202.675781 968.902344 204.617188 C 966.960938 206.558594 964.773438 208.5 963.441406 211.539062 C 962.105469 214.453125 962.105469 217.742188 963.441406 220.28125 C 963.5625 217.367188 964.53125 214.9375 965.867188 212.886719 C 967.203125 210.929688 969.386719 209.242188 971.449219 207.289062 C 973.515625 205.34375 975.335938 203.28125 977.15625 201.21875 C 978.492188 199.636719 979.824219 197.9375 981.039062 196.117188 C 982.253906 196.492188 983.46875 196.96875 984.558594 197.574219 C 987.714844 199.03125 990.628906 200.972656 993.175781 203.171875 C 995.726562 205.464844 997.910156 208.257812 999.855469 211.0625 L 1000.460938 211.902344 C 999.609375 212.507812 998.882812 212.996094 998.152344 213.722656 C 996.578125 215.058594 995.121094 216.636719 993.785156 218.347656 C 992.449219 220.035156 991.355469 221.859375 990.507812 223.921875 C 992.449219 222.828125 994.148438 221.613281 995.726562 220.402344 C 997.304688 219.1875 998.882812 217.851562 1000.460938 216.527344 C 1002.039062 215.179688 1003.496094 213.84375 1004.953125 212.386719 L 1006.40625 210.929688 C 1008.351562 210.324219 1010.171875 209.957031 1012.113281 209.714844 C 1013.691406 209.472656 1015.148438 209.472656 1016.605469 209.59375 C 1017.332031 209.714844 1017.9375 209.714844 1018.546875 209.957031 C 1018.910156 210.082031 1019.152344 210.203125 1019.394531 210.324219 L 1019.761719 210.457031 L 1020.488281 210.808594 C 1022.429688 211.78125 1024.25 212.144531 1026.070312 212.507812 C 1027.890625 212.75 1029.710938 212.886719 1031.414062 212.886719 C 1034.933594 212.886719 1038.453125 212.507812 1041.972656 211.78125 C 1042.820312 211.539062 1043.792969 211.292969 1044.765625 210.929688 C 1044.886719 210.929688 1045.007812 210.808594 1045.25 210.6875 L 1045.128906 210.808594 C 1043.914062 211.539062 1042.457031 212.277344 1041.121094 213.359375 C 1040.394531 213.964844 1039.789062 214.707031 1039.300781 215.542969 C 1038.9375 216.527344 1038.816406 217.488281 1039.179688 218.347656 C 1040.03125 216.757812 1041.242188 216.394531 1042.578125 215.921875 C 1043.914062 215.421875 1045.371094 214.9375 1046.949219 213.964844 C 1047.675781 213.492188 1048.527344 212.996094 1049.132812 212.144531 C 1049.742188 211.414062 1050.347656 210.324219 1050.46875 209.351562 C 1050.589844 208.5 1050.589844 207.652344 1050.710938 206.921875 C 1050.710938 206.679688 1050.710938 206.4375 1050.832031 206.207031 C 1051.804688 205.832031 1052.046875 205.953125 1052.652344 206.558594 C 1052.773438 206.8125 1053.019531 207.042969 1053.140625 207.289062 L 1053.503906 208.136719 C 1053.746094 208.867188 1053.988281 209.472656 1054.230469 210.324219 L 1059.085938 227.320312 C 1038.816406 227.929688 1018.425781 228.777344 998.152344 229.507812 C 977.035156 230.234375 955.792969 231.097656 934.671875 232.058594 C 955.792969 232.058594 977.035156 231.933594 998.152344 231.703125 C 1019.273438 231.449219 1040.515625 231.449219 1061.636719 231.207031 L 1064.183594 231.207031 L 1063.699219 229.386719 C 1083.726562 230.113281 1103.875 230.492188 1123.902344 230.722656 C 1144.660156 230.964844 1165.414062 231.097656 1186.171875 231.097656 C 1206.925781 231.097656 1227.683594 230.964844 1248.4375 230.722656 C 1269.195312 230.492188 1289.949219 229.992188 1310.707031 229.277344 C 1289.949219 228.535156 1269.195312 228.0625 1248.4375 227.808594 C 1227.683594 227.5625 1206.925781 227.453125 1186.171875 227.453125 C 1165.414062 227.453125 1144.660156 227.5625 1123.902344 227.808594 C 1103.875 228.0625 1083.726562 228.535156 1063.699219 229.144531 L 1063.578125 228.667969 L 1058.359375 209.242188 C 1057.871094 207.652344 1057.507812 205.601562 1056.050781 203.777344 C 1055.203125 202.917969 1054.230469 201.957031 1052.773438 201.703125 C 1051.441406 201.460938 1050.105469 201.703125 1049.011719 202.066406 C 1046.949219 202.917969 1045.492188 204.253906 1044.15625 205.710938 L 1043.671875 206.316406 L 1043.671875 206.207031 L 1043.429688 206.316406 C 1043.308594 206.316406 1043.1875 206.4375 1043.066406 206.4375 C 1042.457031 206.679688 1041.730469 206.921875 1041 207.046875 C 1037.964844 207.652344 1034.6875 207.894531 1031.535156 207.894531 C 1029.957031 207.894531 1028.378906 207.773438 1026.921875 207.421875 C 1025.464844 207.167969 1024.007812 206.8125 1022.914062 206.207031 L 1021.703125 205.601562 C 1021.214844 205.34375 1020.730469 205.101562 1020.246094 204.992188 C 1019.273438 204.617188 1018.304688 204.496094 1017.332031 204.386719 C 1015.390625 204.132812 1013.570312 204.253906 1011.75 204.496094 C 1008.835938 204.859375 1006.164062 205.464844 1003.375 206.316406 C 1001.554688 203.644531 999.488281 201.09375 997.0625 198.921875 C 994.148438 196.238281 990.75 193.933594 987.230469 192.246094 C 980.070312 188.710938 972.058594 187.496094 964.773438 186.527344 C 963.925781 186.402344 962.953125 186.28125 962.105469 186.171875 L 960.769531 185.917969 C 960.164062 185.796875 959.433594 185.796875 958.828125 185.796875 C 956.398438 185.796875 954.335938 186.402344 952.394531 187.132812 C 948.511719 188.46875 945.113281 190.421875 941.835938 192.355469 C 936.25 195.753906 931.152344 199.527344 926.175781 203.523438 C 924.960938 201.703125 923.871094 199.761719 922.898438 197.707031 C 922.171875 196.238281 921.5625 194.671875 921.078125 193.203125 C 920.835938 192.476562 920.59375 191.636719 920.472656 190.898438 C 920.351562 190.53125 920.351562 190.167969 920.230469 189.816406 L 919.984375 188.46875 C 919.257812 184.460938 917.921875 180.820312 916.34375 177.417969 C 914.644531 174.03125 912.703125 170.742188 910.277344 167.707031 C 907.847656 164.671875 904.933594 161.890625 901.171875 159.8125 C 900.203125 159.328125 899.230469 158.855469 898.257812 158.476562 C 897.167969 158.246094 896.195312 157.871094 894.980469 157.75 C 892.675781 157.507812 890.734375 157.507812 888.671875 157.75 C 884.664062 158.246094 880.78125 159.460938 877.382812 161.148438 C 875.5625 162 873.984375 162.972656 872.285156 164.0625 C 871.433594 164.550781 870.707031 165.15625 869.976562 165.761719 C 869.855469 165.761719 869.855469 165.640625 869.734375 165.640625 C 868.519531 165.035156 867.1875 164.792969 865.972656 164.792969 C 863.667969 164.792969 861.722656 165.398438 859.902344 166.007812 C 858.203125 166.746094 856.625 167.464844 855.046875 168.3125 C 854.683594 168.566406 854.320312 168.796875 853.957031 169.042969 C 853.105469 167.707031 852.015625 166.613281 850.921875 165.53125 C 848.859375 163.578125 846.550781 161.890625 844.246094 160.542969 C 841.9375 159.207031 839.390625 157.992188 836.960938 157.035156 C 835.261719 156.425781 833.683594 155.820312 831.984375 155.320312 C 831.742188 151.4375 831.257812 147.671875 830.53125 143.910156 C 829.800781 139.292969 828.707031 134.679688 827.375 130.066406 C 826.039062 125.460938 824.21875 120.964844 821.789062 116.59375 C 819.242188 112.347656 815.964844 108.097656 810.867188 105.542969 C 810.257812 105.179688 809.652344 104.9375 808.925781 104.695312 L 807.953125 104.332031 L 807.226562 104.089844 C 806.375 103.722656 805.402344 103.359375 804.554688 102.875 L 802.003906 101.292969 L 799.578125 99.355469 C 796.421875 96.5625 793.507812 93.285156 790.960938 89.761719 C 785.863281 82.597656 781.734375 74.464844 778.457031 66.449219 L 778.214844 65.71875 L 777.730469 65.234375 C 775.058594 62.441406 772.269531 59.648438 769.113281 57.101562 C 765.957031 54.550781 762.4375 52.363281 758.671875 50.789062 C 754.910156 49.210938 751.027344 48.113281 747.261719 47.265625 C 745.320312 46.898438 743.5 46.539062 741.558594 46.175781 L 738.765625 45.683594 C 738.28125 45.566406 737.675781 45.566406 737.1875 45.566406 C 736.582031 45.441406 736.097656 45.441406 735.488281 45.441406 C 730.878906 45.441406 726.628906 47.265625 723.230469 49.574219 C 719.710938 51.878906 716.796875 54.671875 714.25 57.707031 C 711.699219 60.742188 709.394531 63.898438 707.328125 67.179688 C 705.265625 70.457031 703.445312 73.855469 701.746094 77.5 L 701.503906 79.320312 L 701.503906 79.679688 C 701.503906 79.929688 701.382812 80.171875 701.261719 80.535156 C 701.019531 81.140625 700.652344 81.625 700.167969 82.234375 C 699.199219 83.324219 697.863281 84.296875 696.285156 85.144531 C 693.25 86.847656 689.488281 87.820312 685.84375 88.667969 L 683.054688 89.277344 L 680.019531 90 C 677.957031 90.609375 675.890625 91.214844 673.949219 92.1875 C 671.886719 93.160156 670.066406 94.496094 668.367188 96.074219 C 666.789062 97.777344 665.453125 99.839844 664.726562 101.902344 C 663.027344 106.03125 662.664062 110.160156 661.570312 113.558594 C 661.328125 114.410156 660.964844 115.257812 660.597656 115.988281 C 660.355469 116.351562 660.234375 116.714844 659.992188 117.078125 L 659.628906 117.566406 L 659.261719 118.175781 C 658.171875 119.871094 657.078125 121.570312 655.988281 123.273438 C 651.859375 130.066406 647.734375 136.746094 643.242188 143.179688 C 641.058594 146.335938 638.628906 149.492188 636.082031 152.285156 C 635.472656 153.015625 634.746094 153.742188 634.136719 154.351562 C 633.410156 154.957031 632.804688 155.6875 632.074219 156.171875 C 630.617188 157.507812 629.40625 157.75 627.097656 159.691406 C 625.398438 161.390625 624.304688 163.214844 623.335938 165.035156 C 622.363281 166.855469 621.636719 168.796875 620.90625 170.621094 C 619.453125 174.382812 618.359375 178.28125 617.265625 182.15625 C 613.382812 197.210938 610.710938 212.507812 608.527344 227.808594 C 601 227.6875 593.476562 227.6875 585.949219 227.6875 C 576.121094 227.808594 566.289062 227.929688 556.578125 228.292969 C 546.75 228.667969 536.914062 229.144531 527.203125 229.992188 C 537.039062 230.722656 546.867188 230.964844 556.578125 231.207031 C 566.410156 231.097656 576.246094 231.097656 586.070312 231.097656 " fill-opacity="1" fill-rule="nonzero"/></svg>